<?xml version="1.0" encoding="UTF-8"?>
<svg id="Layer_1" data-name="Layer 1" xmlns="http://www.w3.org/2000/svg" version="1.1" viewBox="0 0 1107.36 413.02">
  <defs>
    <style>
      .cls-1 {
        fill: #e1db1d;
      }

      .cls-1, .cls-2 {
        stroke-width: 0px;
      }

      .cls-2 {
        fill: #fff;
      }
    </style>
  </defs>
  <g>
    <path class="cls-1" d="M189.66,264.93c-36.93,0-66.98-30.05-66.98-66.98s30.05-66.98,66.98-66.98,66.98,30.05,66.98,66.98-30.05,66.98-66.98,66.98ZM189.66,156.79c-22.7,0-41.16,18.46-41.16,41.16s18.46,41.16,41.16,41.16,41.16-18.46,41.16-41.16-18.46-41.16-41.16-41.16Z"/>
    <circle class="cls-2" cx="209.37" cy="178.46" r="28.42"/>
    <path class="cls-2" d="M86.95,214.15c-6.93,0-12.66-5.5-12.9-12.47-2.16-63.74,47.93-117.36,111.68-119.53,43.01-1.47,83,20.85,104.38,58.22,3.54,6.19,1.4,14.08-4.79,17.62-6.19,3.54-14.08,1.4-17.62-4.79-16.62-29.04-47.66-46.37-81.09-45.24-49.51,1.68-88.42,43.33-86.74,92.84.24,7.13-5.34,13.1-12.47,13.34-.15,0-.3,0-.45,0Z"/>
    <path class="cls-2" d="M189.61,313.42c-33.18,0-64.58-14.12-86.67-39.12-4.72-5.34-4.22-13.5,1.13-18.23,5.34-4.72,13.5-4.22,18.22,1.13,17.85,20.2,43.49,31.25,70.42,30.35,33.78-1.15,63.75-20.85,78.22-51.43,3.05-6.45,10.75-9.2,17.19-6.15,6.45,3.05,9.2,10.75,6.15,17.19-18.62,39.36-57.2,64.72-100.69,66.2-1.33.05-2.66.07-3.98.07Z"/>
  </g>
  <g>
    <path class="cls-2" d="M557.11,255.22h-18.03c0-.84,0-1.58,0-2.32,0-15.63.02-31.27-.04-46.9-.01-3.88-.93-7.6-2.91-10.97-3.57-6.08-9.21-8.5-15.96-8.57-10-.11-17.54,5.84-19.7,15.49-.46,2.06-.58,4.23-.59,6.35-.05,14.82-.03,29.63-.03,44.45,0,.75,0,1.5,0,2.41h-18.11c0-.69,0-1.42,0-2.15,0-19.4,0-38.8-.02-58.2,0-1.69-.1-3.4-.39-5.05-.47-2.68-2.55-3.8-5.04-2.67-1.62.74-2.16.13-2.45-1.33-.65-3.19-1.26-6.39-2.05-9.55-.36-1.43.08-2.3,1.25-2.96,7.15-4.06,20.32-3.28,23.91,7.36.06.16.21.29.44.58,7.93-7.32,17.4-10.58,28.06-10.15,10.76.43,19.69,4.59,25.97,13.85.46-.51.83-.91,1.19-1.31,8.43-9.44,19.1-13.22,31.55-12.42,9.29.6,17.13,4.19,22.94,11.62,4.56,5.83,6.81,12.59,6.98,19.9.24,10.29.08,20.59.15,30.89.01,1.8.17,3.65.58,5.4.6,2.55,2.51,3.46,4.87,2.41,1.51-.67,2.13-.37,2.44,1.27.61,3.2,1.49,6.35,2.03,9.55.14.86-.26,2.24-.91,2.73-7.55,5.72-21.41,2.19-25.05-6.49-1.07-2.54-1.7-5.44-1.75-8.19-.21-10.36-.11-20.72-.11-31.08,0-4.29-.3-8.52-2.12-12.5-3.14-6.84-9.85-10.73-17.57-10.17-12.19.88-19.42,8.46-19.5,20.7-.09,15.38-.02,30.76-.03,46.15,0,.56,0,1.12,0,1.89Z"/>
    <path class="cls-2" d="M656.49,180.64c4.02-2.29,7.71-5.03,11.85-6.66,23.05-9.12,51.44,2.9,56.32,31.9,2.29,13.65-.32,26.25-9.23,37.12-6.98,8.51-16.21,13.07-27.13,14.17-12.5,1.27-23.45-2.23-32.67-10.86-.14-.13-.3-.23-.46-.33-.03-.02-.11.02-.38.08v9.15h-16.21c0-.81,0-1.6,0-2.39,0-28.88,0-57.75-.01-86.63,0-1.69-.09-3.39-.31-5.06-.42-3.15-2.54-4.38-5.39-3.05-1.38.65-1.86.1-2.12-1.08-.76-3.42-1.58-6.84-2.14-10.3-.12-.74.54-2.05,1.21-2.4,6.12-3.23,12.47-3.32,18.63-.34,5.62,2.72,7.73,7.88,7.91,13.78.21,7.02.1,14.06.13,21.09,0,.67,0,1.35,0,1.8ZM706.88,217.99c.23-18.89-10.32-32.45-27.63-31.25-10.01.69-17.58,5.29-21.6,14.73-2.92,6.85-3.1,13.99-1.42,21.2,4.57,19.67,26.39,22.86,38.16,15.59,8.91-5.5,12.27-13.99,12.49-20.28Z"/>
    <path class="cls-2" d="M844.08,238.84c-4.85,4.56-9.99,7.45-15.98,8.66-9.9,2-19.41,1.07-28.07-4.47-7.82-5.01-12.06-12.51-12.71-21.58-.64-8.93-.34-17.93-.49-26.9-.03-1.56-.12-3.14-.4-4.67-.52-2.8-2.55-3.88-5.16-2.73-1.53.67-2.05.11-2.33-1.29-.65-3.19-1.28-6.39-2.06-9.55-.35-1.4.04-2.28,1.19-3.01,10.89-6.95,25.41-.01,26.11,12.76.5,9.14.19,18.32.35,27.48.04,2.37.16,4.8.76,7.07,1.9,7.22,6.9,11.02,14.14,12.27,8.75,1.51,17.57-2.46,21.69-9.91,1.96-3.56,2.63-7.42,2.63-11.42,0-11.99,0-23.98,0-35.97,0-.74,0-1.48,0-2.33h17.76c0,.69,0,1.3,0,1.91,0,21.85,0,43.7,0,65.54,0,8.86-1.9,17.19-7.32,24.42-5.94,7.93-14.12,12.34-23.67,14.18-10.39,2-20.62,1.35-30.46-2.89-6.21-2.68-11.49-6.64-15.95-11.72-1.09-1.24-1.1-2.16,0-3.39,2.21-2.48,4.29-5.09,6.44-7.62,1.3-1.53,1.84-1.52,3.12,0,5.32,6.33,11.99,10.47,20.14,11.95,7.87,1.43,15.43.61,22.05-4.36,6.03-4.53,8.04-10.97,8.24-18.17.03-1.23,0-2.47,0-4.23Z"/>
    <path class="cls-2" d="M1002.61,173.21h17.85c0,.71,0,1.32,0,1.93,0,21.6-.02,43.2,0,64.81,0,8.24-1.41,16.12-5.96,23.16-5.43,8.39-13.29,13.36-22.88,15.64-11.72,2.79-23.18,2.08-34.19-3.09-5.6-2.62-10.34-6.38-14.4-11.03-1.01-1.16-1.07-2.07-.03-3.26,2.19-2.5,4.28-5.1,6.41-7.66,1.29-1.55,1.93-1.53,3.24-.02,7.28,8.46,16.46,12.86,27.66,12.44,8.21-.31,15.19-3.31,19.61-10.69,2.96-4.95,3.27-10.44,2.97-16.23-.43.29-.78.49-1.08.75-7.49,6.65-16.36,9.01-26.16,8.35-6.57-.44-12.74-2.21-18.08-6.21-6.42-4.8-9.95-11.35-11.16-19.17-.43-2.78-.61-5.62-.64-8.43-.09-6.72,0-13.44-.05-20.16,0-1.56-.06-3.16-.42-4.66-.67-2.8-2.49-3.68-5.09-2.55-1.36.59-1.95.29-2.24-1.13-.67-3.25-1.52-6.47-2.07-9.74-.14-.86.25-2.27.89-2.72,5.47-3.85,18.78-4.11,23.8,4.18,1.8,2.97,2.71,6.22,2.74,9.66.07,8.79-.06,17.58.12,26.37.06,2.84.42,5.81,1.33,8.48,2.17,6.4,7.14,9.51,13.64,10.63,10.22,1.77,20.03-3.77,23.07-13.45.79-2.52,1.05-5.29,1.08-7.96.11-11.93.05-23.86.05-35.79,0-.75,0-1.5,0-2.47Z"/>
    <path class="cls-2" d="M438.27,182.73v-9.47h15.8c0,.77,0,1.56,0,2.35,0,19.21-.01,38.42.02,57.63,0,1.93.13,3.9.55,5.78.56,2.5,2.56,3.42,4.92,2.36,1.42-.64,2.06-.37,2.37,1.14.67,3.32,1.36,6.63,2.14,9.92.32,1.37-.24,2.16-1.34,2.75-8.27,4.42-20.81,2.84-24.04-8.77-.06-.23-.22-.44-.42-.81-1.04.92-1.98,1.8-2.98,2.62-22.57,18.38-60.42,9.09-66.69-25.1-2.66-14.52.28-27.88,10.3-39.12,6.85-7.69,15.63-11.8,25.88-12.76,12.42-1.16,23.31,2.37,32.55,10.8.18.16.4.29.94.68ZM437.91,214.11c-.33-2.48-.5-4.99-1.02-7.43-2-9.4-7.37-16.06-16.73-18.78-9.62-2.8-18.7-1.43-26.04,5.81-7.78,7.67-9.53,17.31-7.3,27.66,2.02,9.35,7.46,16.26,16.8,19.11,9.56,2.92,18.61,1.48,26.14-5.52,5.99-5.57,7.93-12.88,8.15-20.85Z"/>
    <path class="cls-2" d="M889.3,187.08h-13.8v-13.87h13.69c.19-2.44.31-4.68.55-6.89,1.39-12.83,10.85-22.7,23.67-24.79,6.96-1.13,13.76-.75,20.36,1.87.75.3,1.66.54,2.15,1.1.52.6,1.04,1.72.82,2.34-1.18,3.3-2.6,6.51-3.91,9.76-.58,1.42-1.41,1.41-2.67.77-4.13-2.11-8.5-2.59-12.98-1.33-5.44,1.53-9.1,6.21-9.65,12.19-.14,1.54-.17,3.09-.27,4.87h24.54v13.91h-24.53v2.61c0,23.92,0,47.84,0,71.76,0,4.44-.38,8.78-2.77,12.69-3.86,6.29-9.81,8.1-16.7,7.38-2.43-.25-4.81-1.26-7.15-2.11-1.26-.45-1.65-1.55-1.32-2.94.77-3.23,1.46-6.48,2.14-9.72.28-1.33.74-1.85,2.19-1.17,2.52,1.17,4.51.2,5.19-2.48.32-1.27.49-2.6.49-3.91.03-23.54.02-47.09.02-70.63,0-.37-.04-.74-.08-1.42Z"/>
    <path class="cls-2" d="M760.39,197.84c0,12.18-.02,24.36.02,36.54,0,1.61.13,3.28.54,4.83.61,2.3,2.55,3.21,4.7,2.19,1.64-.77,2.29-.28,2.61,1.3.65,3.19,1.27,6.39,2.04,9.55.35,1.43-.13,2.26-1.28,2.95-10.79,6.52-24.6.05-26.31-12.36-.26-1.86-.35-3.75-.36-5.63-.02-23.73,0-47.47-.04-71.2,0-1.74-.09-3.53-.49-5.22-.56-2.39-2.59-3.34-4.81-2.27-1.66.8-2.26.28-2.58-1.31-.64-3.19-1.25-6.4-2.04-9.55-.35-1.37.11-2.15,1.15-2.83,10.41-6.95,25.14-.32,26.5,11.97.26,2.36.3,4.76.31,7.14.03,11.3.01,22.6.01,33.9Z"/>
  </g>
</svg>