<?xml version="1.0" encoding="UTF-8"?>
<svg id="Layer_1" data-name="Layer 1" xmlns="http://www.w3.org/2000/svg" version="1.1" viewBox="0 0 1335.58 1200">
  <defs>
    <style>
      .cls-1 {
        fill: #e1db1d;
      }

      .cls-1, .cls-2, .cls-3, .cls-4 {
        stroke-width: 0px;
      }

      .cls-5 {
        stroke: #fff2e6;
        stroke-linecap: round;
        stroke-linejoin: round;
        stroke-width: 8.53px;
      }

      .cls-5, .cls-3 {
        fill: #fff2e6;
      }

      .cls-2 {
        fill: #144475;
      }

      .cls-4 {
        fill: #fff;
      }
    </style>
  </defs>
  <path class="cls-3" d="M831.57,752.61c-17.64-32.56-42.83-61.76-74.9-86.8-65.5-51.15-152.46-79.31-244.87-79.31s-179.37,28.17-244.87,79.31c-32.06,25.04-57.26,54.24-74.9,86.8-18.36,33.9-27.68,69.94-27.68,107.12s9.29,73.95,27.61,109.16c17.7,34.01,42.84,64.8,74.73,91.5,32.12,26.9,69.23,48.08,110.29,62.96,42.98,15.58,88.34,23.47,134.81,23.47s91.83-7.9,134.81-23.47c41.06-14.88,78.17-36.06,110.29-62.96,31.89-26.71,57.04-57.49,74.73-91.5,18.32-35.21,27.61-71.94,27.61-109.16s-9.31-73.22-27.68-107.12Z"/>
  <g>
    <path class="cls-5" d="M814.81,553.86c-194.04,57.6-250.63,210.71-250.63,210.71,0,0,49.81-289.69,230.73-380.45,222.91-111.83,611.47,25.19,471.96,171.85-109.92,115.56-258.02-59.71-452.07-2.11Z"/>
    <path class="cls-5" d="M301.96,447.07c87.25,182.64,38.8,358.66,38.8,358.66,0,0,122.7-214.03,99.47-412.95C411.3,145.08,40.19-57.49,24.79,144.33c-12.13,159.02,189.91,120.1,277.16,302.74Z"/>
    <path class="cls-1" d="M930.36,485.19c-72.67-1.11-145.23,17.53-213.02,48.43,32.31-53.56,78.22-94.96,151.19-120.44,71.45-24.95,150.8-25.32,222.32-10.77,41.9,8.53,96.33,21.11,125.47,55.01,16.79,19.53,17.49,41.21,5.92,63.74-17,33.13-54.07,28.73-86,19.36-24.97-7.33-48.24-19.41-72.42-29.03-43.8-17.44-88.65-25.62-133.45-26.3Z"/>
    <path class="cls-1" d="M278.4,349.54c45.4,50.85,76.72,113.74,96.42,180.78,18.15-55.79,19.32-113.76-7.41-181.13-26.17-65.98-74.62-122.47-128.84-164.25-31.77-24.48-74.11-55.35-116.03-55.2-24.16.08-39.95,12.89-48.83,34.92-13.06,32.4,12.82,55.98,39.07,72.87,20.52,13.21,43.38,22.3,65.04,33.53,39.26,20.36,72.59,47.13,100.57,78.48Z"/>
    <g>
      <circle class="cls-2" cx="722.72" cy="859.64" r="64.58"/>
      <path class="cls-1" d="M722.71,939.65c-6.54,0-13.17-.81-19.79-2.5-42.74-10.92-68.62-54.58-57.7-97.31s54.58-68.62,97.31-57.7c42.73,10.92,68.62,54.58,57.7,97.31h0c-9.23,36.12-41.84,60.2-77.52,60.2ZM722.73,810.48c-21.92,0-41.96,14.8-47.63,36.99-6.71,26.26,9.19,53.08,35.46,59.8,26.25,6.71,53.08-9.19,59.79-35.46,6.71-26.26-9.19-53.08-35.46-59.8-4.07-1.04-8.15-1.54-12.16-1.54Z"/>
    </g>
    <circle class="cls-4" cx="751.28" cy="842.92" r="33.94"/>
    <g>
      <circle class="cls-2" cx="301.96" cy="859.64" r="64.58"/>
      <path class="cls-1" d="M301.95,939.65c-6.54,0-13.17-.81-19.79-2.5-42.74-10.92-68.62-54.58-57.7-97.31s54.58-68.62,97.31-57.7c42.73,10.92,68.62,54.58,57.7,97.31h0c-9.23,36.12-41.84,60.2-77.52,60.2ZM301.96,810.48c-21.92,0-41.96,14.8-47.63,36.99-6.71,26.26,9.19,53.08,35.46,59.8,26.25,6.71,53.08-9.19,59.79-35.46,6.71-26.26-9.19-53.08-35.46-59.8-4.07-1.04-8.15-1.54-12.16-1.54Z"/>
    </g>
    <circle class="cls-4" cx="330.52" cy="842.92" r="33.94"/>
    <g>
      <path class="cls-2" d="M563.61,1044.18c-1.23,0-2.47-.03-3.71-.09-21.71-1.09-41.61-11.73-54.59-29.19-3.18-4.27-2.29-10.31,1.98-13.49,4.27-3.18,10.31-2.29,13.49,1.98,9.54,12.82,24.15,20.64,40.09,21.44,20,1.01,38.7-9.14,48.78-26.48,2.68-4.6,8.58-6.17,13.18-3.49,4.6,2.67,6.17,8.58,3.5,13.18-13.09,22.54-36.87,36.15-62.71,36.15Z"/>
      <path class="cls-2" d="M509.91,1079.54c-1.23,0-2.47-.03-3.71-.09-21.71-1.09-41.61-11.73-54.59-29.19-3.18-4.27-2.29-10.31,1.98-13.49,4.27-3.18,10.31-2.29,13.49,1.98,9.54,12.82,24.15,20.64,40.09,21.44,19.99,1,38.7-9.14,48.78-26.48,2.67-4.6,8.58-6.17,13.18-3.49,4.6,2.67,6.17,8.58,3.5,13.18-13.09,22.54-36.87,36.15-62.71,36.15Z"/>
      <path class="cls-2" d="M457.44,1044.18c-1.23,0-2.47-.03-3.71-.09-21.71-1.09-41.61-11.73-54.59-29.19-3.18-4.27-2.29-10.31,1.98-13.49,4.27-3.18,10.31-2.29,13.49,1.98,9.54,12.82,24.15,20.64,40.09,21.44,19.99,1.01,38.7-9.14,48.78-26.48,2.67-4.6,8.58-6.17,13.18-3.49,4.6,2.67,6.17,8.58,3.49,13.18-13.09,22.54-36.87,36.15-62.71,36.15Z"/>
      <path class="cls-2" d="M569.43,931.99c-4.27-27.99-28.45-49.43-57.63-49.43s-53.36,21.44-57.63,49.43c27.59,4.61,48.62,28.59,48.62,57.49,0,3.02-.23,5.98-.67,8.87,3.15.53,6.38.82,9.68.82s6.53-.29,9.68-.82c-.44-2.89-.67-5.86-.67-8.87,0-28.9,21.03-52.87,48.62-57.49Z"/>
    </g>
    <path class="cls-2" d="M750.05,1017.53c-49.24,0-95.68-15.86-130.77-44.66-36.1-29.64-55.99-69.34-55.99-111.81s19.88-82.18,55.99-111.81c35.09-28.8,81.53-44.66,130.77-44.66s95.68,15.86,130.77,44.66c36.11,29.64,55.99,69.34,55.99,111.81s-19.88,82.18-55.99,111.81c-35.09,28.8-81.53,44.66-130.77,44.66ZM750.05,740.09c-83.4,0-151.25,54.26-151.25,120.96s67.85,120.96,151.25,120.96,151.25-54.26,151.25-120.96-67.85-120.96-151.25-120.96Z"/>
    <path class="cls-2" d="M271.23,1025.26c-49.24,0-95.68-15.86-130.77-44.66-36.11-29.64-55.99-69.34-55.99-111.81s19.88-82.18,55.99-111.81c35.09-28.8,81.53-44.66,130.77-44.66s95.68,15.86,130.77,44.66c36.11,29.64,55.99,69.34,55.99,111.81s-19.88,82.18-55.99,111.81c-35.09,28.8-81.53,44.66-130.77,44.66ZM271.23,747.82c-83.4,0-151.25,54.26-151.25,120.96s67.85,120.96,151.25,120.96,151.25-54.26,151.25-120.96-67.85-120.96-151.25-120.96Z"/>
  </g>
</svg>